<?xml version="1.0" encoding="UTF-8"?>
<svg width="128px" height="128px" viewBox="0 0 128 128" version="1.1" xmlns="http://www.w3.org/2000/svg" xmlns:xlink="http://www.w3.org/1999/xlink">
    <title>编组 3</title>
    <g id="页面-1" stroke="none" stroke-width="1" fill="none" fill-rule="evenodd">
        <g id="流媒体管理后台" transform="translate(-814.000000, -300.000000)">
            <g id="编组-3" transform="translate(814.000000, 300.000000)">
                <rect id="矩形" x="0" y="0" width="128" height="128"></rect>
                <g id="shipin-7" transform="translate(6.808511, 9.531915)" fill="#414141" fill-rule="nonzero">
                    <path d="M49.5319149,19.7446809 L32.7943263,0 L13.787234,0 L30.5248227,19.6879432 L49.5319149,19.6879432 L49.5319149,19.7446809 Z M98.8368795,19.7446809 L82.0992908,0.0567375 L63.0921987,0.0567375 L79.8865249,19.7446809 L98.8368795,19.7446809 Z M74.212766,19.7446809 L57.4751774,0.0567375 L38.4680851,0.0567375 L55.2056738,19.7446809 L74.212766,19.7446809 Z M105.985816,0 L87.7730497,0 L104.567376,19.6879432 L113.41844,19.6879432 L113.41844,7.43262407 C113.361702,3.23404255 110.184397,0 105.985816,0 Z M8.11347527,0 L7.37588657,0 C3.17730505,0 1.77635684e-15,3.17730492 1.77635684e-15,7.37588644 L1.77635684e-15,19.6879432 L24.9078015,19.6879432 L8.11347527,0 Z M0,101.049645 C0,105.248227 3.17730492,108.425532 7.37588657,108.425532 L105.985816,108.425532 C110.184397,108.425532 113.361702,105.248227 113.361702,101.049645 L113.361702,24.6808511 L0,24.6808511 L0,101.049645 Z M39.4326242,46.8652481 C39.4326242,42.6666666 42.8936172,40.6808511 46.8085106,40.6808511 C48.0567376,40.6808511 49.5319149,40.9078015 50.7801419,41.64539 L78.8652483,57.9290779 C82.2695036,59.7446807 83.5744681,63.9432624 81.7588653,67.3475177 C81.1347519,68.5957447 80.1134753,69.5602836 78.8652483,70.2411347 L50.7801419,86.5248226 C49.5319149,87.2624113 48.3404255,87.4893617 46.8085106,87.4893617 C42.8368794,87.4893617 39.4326242,85.5035461 39.4326242,81.3049645 L39.4326242,46.8652481 Z" id="形状"></path>
                </g>
            </g>
        </g>
    </g>
</svg>
